<svg width="421" height="350" viewBox="0 0 421 350" fill="none" xmlns="http://www.w3.org/2000/svg">
<g opacity="0.25">
<g opacity="0.4">
<path d="M300.106 2.55372L377.276 0L374.478 70.0868L361.614 69.6782L363.583 20.7107L114.821 246.638L105.725 238.377L354.5 12.4366L300.57 14.2242L300.106 2.55372Z" fill="url(#paint0_linear_1_4189)" style="mix-blend-mode:screen"/>
<path d="M247.496 156.786L247.117 147.081L311.269 144.949L308.949 203.225L298.25 202.88L299.895 162.174L93.0853 350L85.5215 343.131L292.345 155.292L247.496 156.786Z" fill="url(#paint1_linear_1_4189)" style="mix-blend-mode:screen"/>
<path d="M335.367 181.429L335.184 176.717L366.325 175.683L365.2 203.978L360.013 203.812L360.8 184.047L260.404 275.227L256.734 271.895L357.13 180.714L335.367 181.429Z" fill="url(#paint2_linear_1_4189)" style="mix-blend-mode:screen"/>
<path d="M202.029 178.377L201.847 173.666L232.987 172.631L231.863 200.914L226.675 200.748L227.462 180.995L127.066 272.163L123.397 268.83L223.807 177.65L202.029 178.377Z" fill="url(#paint3_linear_1_4189)" style="mix-blend-mode:screen"/>
<path d="M146.144 27.9249L145.962 23.2133L177.102 22.179L175.964 50.4615L170.776 50.2955L171.577 30.5425L71.1811 121.71L67.5117 118.378L167.908 27.1971L146.144 27.9249Z" fill="url(#paint4_linear_1_4189)" style="mix-blend-mode:screen"/>
<path d="M362.331 92.6362L362.233 90.2485L378.035 89.7249L377.459 104.077L374.83 104L375.238 93.9641L324.287 140.238L322.432 138.539L373.368 92.2659L362.331 92.6362Z" fill="url(#paint5_linear_1_4189)" style="mix-blend-mode:screen"/>
<path d="M180.364 135.092L180.28 132.704L196.082 132.181L195.506 146.532L192.877 146.456L193.271 136.42L142.334 182.693L140.465 180.995L191.415 134.734L180.364 135.092Z" fill="url(#paint6_linear_1_4189)" style="mix-blend-mode:screen"/>
<path d="M405.283 171.789L405.198 169.401L421.001 168.878L420.424 183.229L417.795 183.153L418.189 173.117L367.253 219.39L365.383 217.692L416.333 171.431L405.283 171.789Z" fill="url(#paint7_linear_1_4189)" style="mix-blend-mode:screen"/>
<path d="M252.417 4.82653L252.333 2.4388L268.135 1.91528L267.559 16.2672L264.93 16.1778L265.324 6.15446L214.387 52.4151L212.518 50.7296L263.468 4.45624L252.417 4.82653Z" fill="url(#paint8_linear_1_4189)" style="mix-blend-mode:screen"/>
<path d="M212.728 119.706L214.359 78.9993L7.5638 266.825L0 259.956L206.824 72.117L161.975 73.611L161.595 63.8941L225.747 61.7745L223.427 120.05L212.728 119.706Z" fill="url(#paint9_linear_1_4189)" style="mix-blend-mode:screen"/>
</g>
</g>
<defs>
<linearGradient id="paint0_linear_1_4189" x1="347.897" y1="-15.4032" x2="189.845" y2="285.986" gradientUnits="userSpaceOnUse">
<stop offset="0.11" stop-color="#178077"/>
<stop offset="1" stop-color="#191919" stop-opacity="0"/>
</linearGradient>
<linearGradient id="paint1_linear_1_4189" x1="286.845" y1="132.143" x2="155.437" y2="382.705" gradientUnits="userSpaceOnUse">
<stop offset="0.11" stop-color="#178077"/>
<stop offset="1" stop-color="#191919" stop-opacity="0"/>
</linearGradient>
<linearGradient id="paint2_linear_1_4189" x1="354.468" y1="169.466" x2="290.675" y2="291.104" gradientUnits="userSpaceOnUse">
<stop offset="0.11" stop-color="#178077"/>
<stop offset="1" stop-color="#191919" stop-opacity="0"/>
</linearGradient>
<linearGradient id="paint3_linear_1_4189" x1="221.131" y1="166.415" x2="157.35" y2="288.044" gradientUnits="userSpaceOnUse">
<stop offset="0.11" stop-color="#178077"/>
<stop offset="1" stop-color="#191919" stop-opacity="0"/>
</linearGradient>
<linearGradient id="paint4_linear_1_4189" x1="165.246" y1="15.9631" x2="101.465" y2="137.592" gradientUnits="userSpaceOnUse">
<stop offset="0.11" stop-color="#178077"/>
<stop offset="1" stop-color="#191919" stop-opacity="0"/>
</linearGradient>
<linearGradient id="paint5_linear_1_4189" x1="372.02" y1="86.5703" x2="339.646" y2="148.291" gradientUnits="userSpaceOnUse">
<stop offset="0.11" stop-color="#178077"/>
<stop offset="1" stop-color="#191919" stop-opacity="0"/>
</linearGradient>
<linearGradient id="paint6_linear_1_4189" x1="190.065" y1="129.026" x2="157.696" y2="190.753" gradientUnits="userSpaceOnUse">
<stop offset="0.11" stop-color="#178077"/>
<stop offset="1" stop-color="#191919" stop-opacity="0"/>
</linearGradient>
<linearGradient id="paint7_linear_1_4189" x1="414.983" y1="165.723" x2="382.614" y2="227.45" gradientUnits="userSpaceOnUse">
<stop offset="0.11" stop-color="#178077"/>
<stop offset="1" stop-color="#191919" stop-opacity="0"/>
</linearGradient>
<linearGradient id="paint8_linear_1_4189" x1="262.118" y1="-1.23856" x2="229.762" y2="60.4797" gradientUnits="userSpaceOnUse">
<stop offset="0.11" stop-color="#178077"/>
<stop offset="1" stop-color="#191919" stop-opacity="0"/>
</linearGradient>
<linearGradient id="paint9_linear_1_4189" x1="201.323" y1="48.9685" x2="69.9159" y2="299.53" gradientUnits="userSpaceOnUse">
<stop offset="0.11" stop-color="#178077"/>
<stop offset="1" stop-color="#191919" stop-opacity="0"/>
</linearGradient>
</defs>
</svg>
